<svg width="38" height="34" viewBox="0 0 38 34" fill="none" xmlns="http://www.w3.org/2000/svg">
<path d="M24.3201 3.04653L37.052 24.1286C38.8817 27.1565 37.983 31.1402 35.0437 33.0253C34.0572 33.6604 32.9073 33.9988 31.732 34H6.26622C2.80631 34 0 31.11 0 27.5418C0 26.3348 0.328701 25.1543 0.946203 24.1286L13.68 3.04653C15.5078 0.0186215 19.3725 -0.90883 22.3118 0.976296C23.125 1.49763 23.8128 2.20597 24.3201 3.04653ZM19.0001 26.4444C19.504 26.4444 19.9872 26.2454 20.3436 25.8911C20.6999 25.5369 20.9001 25.0564 20.9001 24.5555C20.9001 24.0545 20.6999 23.5741 20.3436 23.2198C19.9872 22.8656 19.504 22.6666 19.0001 22.6666C18.4961 22.6666 18.0129 22.8656 17.6565 23.2198C17.3002 23.5741 17.1 24.0545 17.1 24.5555C17.1 25.0564 17.3002 25.5369 17.6565 25.8911C18.0129 26.2454 18.4961 26.4444 19.0001 26.4444ZM19.0001 9.44425C18.4961 9.44425 18.0129 9.64326 17.6565 9.9975C17.3002 10.3517 17.1 10.8322 17.1 11.3332V18.8888C17.1 19.3897 17.3002 19.8702 17.6565 20.2244C18.0129 20.5787 18.4961 20.7777 19.0001 20.7777C19.504 20.7777 19.9872 20.5787 20.3436 20.2244C20.6999 19.8702 20.9001 19.3897 20.9001 18.8888V11.3332C20.9001 10.8322 20.6999 10.3517 20.3436 9.9975C19.9872 9.64326 19.504 9.44425 19.0001 9.44425Z" fill="#C9CB52"/>
</svg>
