<svg width="23" height="20" viewBox="0 0 23 20" fill="none" xmlns="http://www.w3.org/2000/svg">
<path d="M14.1474 1.79208L21.5538 14.1933C22.6182 15.9744 22.0954 18.3178 20.3855 19.4267C19.8117 19.8002 19.1427 19.9993 18.4591 20H3.64517C1.63248 20 0 18.3 0 16.2011C0 15.4911 0.191211 14.7966 0.550423 14.1933L7.95792 1.79208C9.02118 0.0109538 11.2693 -0.534606 12.9791 0.574292C13.4522 0.880961 13.8523 1.29763 14.1474 1.79208ZM11.0527 15.5555C11.3458 15.5555 11.6269 15.4385 11.8342 15.2301C12.0415 15.0217 12.1579 14.7391 12.1579 14.4444C12.1579 14.1497 12.0415 13.8671 11.8342 13.6587C11.6269 13.4503 11.3458 13.3333 11.0527 13.3333C10.7595 13.3333 10.4784 13.4503 10.2711 13.6587C10.0638 13.8671 9.9474 14.1497 9.9474 14.4444C9.9474 14.7391 10.0638 15.0217 10.2711 15.2301C10.4784 15.4385 10.7595 15.5555 11.0527 15.5555ZM11.0527 5.55544C10.7595 5.55544 10.4784 5.67251 10.2711 5.88088C10.0638 6.08926 9.9474 6.37187 9.9474 6.66656V11.111C9.9474 11.4057 10.0638 11.6883 10.2711 11.8967C10.4784 12.1051 10.7595 12.2222 11.0527 12.2222C11.3458 12.2222 11.6269 12.1051 11.8342 11.8967C12.0415 11.6883 12.1579 11.4057 12.1579 11.111V6.66656C12.1579 6.37187 12.0415 6.08926 11.8342 5.88088C11.6269 5.67251 11.3458 5.55544 11.0527 5.55544Z" fill="#C9CB52"/>
</svg>
